<svg width="312" height="312" xmlns="http://www.w3.org/2000/svg"><g transform="translate(9 7)" fill="none" fill-rule="evenodd"><text font-family="Arial-BoldItalicMT, Arial" font-size="40" font-style="italic" font-weight="bold" fill="#000"><tspan x="109.104" y="140">One</tspan> <tspan x="93.527" y="184">React</tspan></text><circle stroke="#3A3A3A" stroke-width="17" cx="150.5" cy="153.5" r="137.5"/><path d="M30.14 220.032C11.293 196.82 0 167.229 0 135 0 60.442 60.442 0 135 0c40.811 0 77.393 18.11 102.148 46.73C213.5 27.517 183.345 16 150.5 16 74.56 16 13 77.56 13 153.5c0 24.134 6.218 46.816 17.14 66.532z" stroke="#3A3A3A" stroke-width="4"/><path d="M21.55 202.46c23.319 34.857 63.045 57.81 108.131 57.81 71.797 0 130-58.204 130-130 0-38.733-16.938-73.509-43.812-97.325 42.782 23.308 71.812 68.676 71.812 120.824 0 75.94-61.56 137.5-137.5 137.5-58.795 0-108.971-36.903-128.63-88.81z" stroke="#3A3A3A" stroke-width="4"/></g></svg>